<svg xmlns="http://www.w3.org/2000/svg" xmlns:xlink="http://www.w3.org/1999/xlink" width="240" height="73.59375"><path fill="#172b4d" d="M11.25 59.53L4.92 59.53L4.92 7.73L23.20 7.73L23.20 12.66Q22.73 21.56 19.22 27.42L19.22 27.42Q23.44 32.58 23.44 39.61L23.44 39.61Q23.67 51.56 12.89 51.33L12.89 51.33L12.89 45.70Q18.05 45.70 18.05 38.91L18.05 38.91Q18.28 32.58 13.59 27.89L13.59 27.89Q17.11 21.09 17.11 12.66L17.11 12.66L11.25 12.66L11.25 59.53ZM47.11 13.59L25.31 13.59L25.31 8.67L57.66 8.67L57.66 13.59L53.91 13.59L53.91 52.03Q54.14 58.83 46.41 58.83L46.41 58.83L41.02 58.83L41.02 53.91L44.06 53.91Q47.34 54.14 47.11 51.33L47.11 51.33L47.11 13.59ZM35.86 48.05L26.25 48.05L26.25 18.75L43.13 18.75L43.13 40.78Q43.36 48.28 35.86 48.05L35.86 48.05ZM31.88 23.44L31.88 43.36L34.45 43.36Q37.50 43.36 37.50 40.31L37.50 40.31L37.50 23.44L31.88 23.44ZM95.86 13.83L82.73 13.83L82.73 8.91L116.72 8.91L116.72 13.83L103.83 13.83Q102.42 19.22 100.55 23.44L100.55 23.44L102.42 23.44L102.42 59.06L94.92 59.06L94.92 33.05Q90 39.38 82.73 45L82.73 45L82.73 49.22Q74.30 53.44 63.05 54.38L63.05 54.38L63.05 48.75Q66.56 48.52 69.14 47.81L69.14 47.81L69.14 21.33L63.28 21.33L63.28 16.41L69.14 16.41L69.14 5.39L76.41 5.39L76.41 16.41L81.80 16.41L81.80 21.33L76.41 21.33L76.41 46.41Q78.28 45.70 80.63 45L80.63 45L80.63 41.02Q92.58 28.59 95.86 13.83L95.86 13.83ZM117.19 36.80L117.19 45.47Q110.63 38.20 104.06 33.98L104.06 33.98L104.06 27.42Q111.56 31.17 117.19 36.80L117.19 36.80ZM145.31 13.59L123.28 13.59L123.28 8.44L176.72 8.44L176.72 13.59L153.52 13.59Q153.28 17.11 152.11 19.92L152.11 19.92L172.03 19.92L172.03 49.45Q172.27 57.66 163.36 57.42L163.36 57.42L128.20 57.42L128.20 19.92L143.91 19.92Q144.38 18.52 145.08 15.47L145.08 15.47Q145.08 14.30 145.31 13.59L145.31 13.59ZM135.23 41.25L135.23 52.73L161.48 52.73Q165 52.97 165 48.98L165 48.98L165 41.25L135.23 41.25ZM165 25.08L135.23 25.08L135.23 36.09L165 36.09L165 25.08ZM191.02 12.89L183.75 12.89L183.75 7.97L195.23 7.97Q200.63 7.97 205.08 6.56L205.08 6.56L205.08 11.72Q202.27 12.42 197.81 12.89L197.81 12.89L197.81 20.39L204.84 20.39L204.84 25.31L198.05 25.31Q200.16 32.81 204.61 38.44L204.61 38.44L204.61 45.23Q200.16 40.55 197.81 36.56L197.81 36.56L197.81 59.30L191.02 59.30L191.02 38.44Q188.20 44.06 182.34 50.63L182.34 50.63L182.34 43.83Q187.97 35.39 190.78 25.31L190.78 25.31L183.05 25.31L183.05 20.39L191.02 20.39L191.02 12.89ZM223.36 45.23L205.78 45.23L205.78 40.31L223.36 40.31L223.36 5.63L230.63 5.63L230.63 40.31L237.42 40.31L237.42 45.23L230.63 45.23L230.63 59.30L223.36 59.30L223.36 45.23ZM219.84 27.89L219.84 34.69Q213.05 30.70 206.25 29.30L206.25 29.30L206.25 24.14Q213.98 24.84 219.84 27.89L219.84 27.89ZM221.02 13.59L221.02 20.16Q215.16 16.88 207.89 15.47L207.89 15.47L207.89 10.31Q215.39 10.78 221.02 13.59L221.02 13.59Z"/></svg>
